<svg xmlns="http://www.w3.org/2000/svg" viewBox="0 0 360 760" width="360" height="760" role="img" aria-label="The same med spa website, rebuilt by TechxServe — a new mobile design">
  <defs>
    <linearGradient id="afterHeroM" x1="0" y1="0" x2="1" y2="1">
      <stop offset="0" stop-color="#D9B8B0"/>
      <stop offset="1" stop-color="#8C9A7E"/>
    </linearGradient>
  </defs>
  <rect width="360" height="760" fill="#FAF6F0"/>

  <!-- nav -->
  <rect x="0" y="0" width="360" height="58" fill="#FAF6F0"/>
  <text x="20" y="36" font-family="Georgia, serif" font-size="18" fill="#5E6B52" font-weight="700">Aurelia</text>
  <rect x="298" y="16" width="42" height="26" rx="13" fill="#F2EBE0"/>
  <g stroke="#5E6B52" stroke-width="2" stroke-linecap="round"><path d="M310 25 h18 M310 30 h18 M310 35 h18"/></g>

  <!-- hero image block, full width -->
  <rect x="16" y="72" width="328" height="220" rx="22" fill="url(#afterHeroM)"/>
  <circle cx="300" cy="110" r="70" fill="#FAF6F0" opacity="0.12"/>
  <rect x="34" y="240" width="140" height="40" rx="12" fill="#FAF6F0"/>
  <g fill="#C5A572"><circle cx="50" cy="256" r="2.5"/><circle cx="58" cy="256" r="2.5"/><circle cx="66" cy="256" r="2.5"/><circle cx="74" cy="256" r="2.5"/><circle cx="82" cy="256" r="2.5"/></g>
  <text x="50" y="270" font-family="Georgia, serif" font-size="10" fill="#2E2A26" font-weight="600">5.0 · 214 reviews</text>

  <!-- headline -->
  <rect x="16" y="318" width="130" height="26" rx="13" fill="#F2EBE0"/>
  <text x="81" y="335" font-family="Arial" font-size="9.5" fill="#5E6B52" text-anchor="middle" letter-spacing="0.5" font-weight="600">MED SPA &amp; AESTHETICS</text>
  <text x="16" y="382" font-family="Georgia, serif" font-size="30" fill="#5E6B52" font-weight="700">Confidence,</text>
  <text x="16" y="416" font-family="Georgia, serif" font-size="30" fill="#2E2A26" font-weight="700">delivered.</text>
  <rect x="16" y="438" width="220" height="11" rx="3" fill="#2E2A26" opacity="0.25"/>

  <!-- CTA -->
  <rect x="16" y="468" width="200" height="46" rx="23" fill="#5E6B52"/>
  <text x="116" y="496" font-family="Arial" font-size="12" fill="#FAF6F0" text-anchor="middle" font-weight="600">Reserve Your Visit</text>

  <!-- treatments 2x2 -->
  <text x="16" y="556" font-family="Georgia, serif" font-size="16" fill="#5E6B52" font-weight="600">Popular treatments</text>
  <rect x="16" y="574" width="154" height="92" rx="14" fill="#F2EBE0"/>
  <rect x="188" y="574" width="156" height="92" rx="14" fill="#F2EBE0"/>
  <rect x="16" y="676" width="154" height="60" rx="14" fill="#F2EBE0"/>
  <rect x="188" y="676" width="156" height="60" rx="14" fill="#F2EBE0"/>
  <circle cx="44" cy="602" r="13" fill="#5E6B52" opacity="0.85"/>
  <circle cx="216" cy="602" r="13" fill="#5E6B52" opacity="0.85"/>
  <rect x="64" y="596" width="90" height="9" rx="4" fill="#5E6B52" opacity="0.55"/>
  <rect x="236" y="596" width="92" height="9" rx="4" fill="#5E6B52" opacity="0.55"/>
  <rect x="64" y="612" width="70" height="8" rx="4" fill="#2E2A26" opacity="0.2"/>
  <rect x="236" y="612" width="70" height="8" rx="4" fill="#2E2A26" opacity="0.2"/>
</svg>
