<svg xmlns="http://www.w3.org/2000/svg" viewBox="0 0 360 760" width="360" height="760" role="img" aria-label="The same med spa website, rebuilt by TechxServe">
  <defs>
    <linearGradient id="asage" x1="0" y1="0" x2="1" y2="1">
      <stop offset="0" stop-color="#8C9A7E"/>
      <stop offset="1" stop-color="#5E6B52"/>
    </linearGradient>
  </defs>
  <rect width="360" height="760" fill="#FAF6F0"/>
  <rect x="0" y="0" width="360" height="54" fill="#FAF6F0"/>
  <text x="24" y="34" font-family="Georgia, serif" font-size="17" fill="#5E6B52" font-weight="600">Lumière</text>
  <rect x="252" y="18" width="84" height="22" rx="11" fill="#5E6B52"/>
  <text x="294" y="33" font-family="Arial" font-size="10" fill="#FAF6F0" text-anchor="middle">Book Now</text>
  <rect x="0" y="54" width="360" height="280" fill="url(#asage)"/>
  <circle cx="300" cy="100" r="56" fill="#FAF6F0" opacity="0.08"/>
  <text x="24" y="150" font-family="Georgia, serif" font-size="27" fill="#FAF6F0" font-weight="600">Glow that lasts.</text>
  <rect x="24" y="172" width="150" height="14" rx="2" fill="#FAF6F0" opacity="0.5"/>
  <rect x="24" y="200" width="20" height="14" rx="2" fill="#FAF6F0" opacity="0.35"/>
  <rect x="24" y="252" width="140" height="36" rx="18" fill="#C5A572"/>
  <text x="94" y="275" font-family="Arial" font-size="11" fill="#2E2A26" text-anchor="middle" font-weight="600">Reserve a visit</text>
  <rect x="24" y="362" width="98" height="118" rx="12" fill="#F2EBE0"/>
  <rect x="131" y="362" width="98" height="118" rx="12" fill="#F2EBE0"/>
  <rect x="238" y="362" width="98" height="118" rx="12" fill="#F2EBE0"/>
  <circle cx="73" cy="400" r="15" fill="#8C9A7E" opacity="0.45"/>
  <circle cx="180" cy="400" r="15" fill="#8C9A7E" opacity="0.45"/>
  <circle cx="287" cy="400" r="15" fill="#8C9A7E" opacity="0.45"/>
  <rect x="49" y="428" width="48" height="8" rx="4" fill="#5E6B52" opacity="0.5"/>
  <rect x="156" y="428" width="48" height="8" rx="4" fill="#5E6B52" opacity="0.5"/>
  <rect x="263" y="428" width="48" height="8" rx="4" fill="#5E6B52" opacity="0.5"/>
  <rect x="24" y="504" width="312" height="150" rx="12" fill="#D9B8B0" opacity="0.35"/>
  <text x="44" y="540" font-family="Georgia, serif" font-size="15" fill="#5E6B52">“Booked in 30 seconds.”</text>
  <g fill="#C5A572"><circle cx="44" cy="560" r="3"/><circle cx="56" cy="560" r="3"/><circle cx="68" cy="560" r="3"/><circle cx="80" cy="560" r="3"/><circle cx="92" cy="560" r="3"/></g>
  <rect x="0" y="690" width="360" height="70" fill="#5E6B52"/>
  <text x="24" y="730" font-family="Georgia, serif" font-size="13" fill="#FAF6F0">Lumière Aesthetics</text>
</svg>
