<svg xmlns="http://www.w3.org/2000/svg" viewBox="0 0 360 760" width="360" height="760" role="img" aria-label="A different med spa website design, built for mobile by TechxServe">
  <defs>
    <linearGradient id="blush" x1="0" y1="0" x2="0" y2="1">
      <stop offset="0" stop-color="#E8C9C2"/>
      <stop offset="1" stop-color="#D9B8B0"/>
    </linearGradient>
  </defs>
  <rect width="360" height="760" fill="#FBF3EF"/>
  <!-- top bar -->
  <rect x="0" y="0" width="360" height="56" fill="#FBF3EF"/>
  <text x="24" y="36" font-family="Georgia, serif" font-size="19" fill="#7A4E47" font-weight="600" font-style="italic">Maison Belle</text>
  <circle cx="318" cy="28" r="14" fill="#7A4E47"/>
  <path d="M312 28h12M318 22v12" stroke="#FBF3EF" stroke-width="1.6" stroke-linecap="round"/>
  <!-- rounded hero image -->
  <rect x="20" y="70" width="320" height="300" rx="24" fill="url(#blush)"/>
  <circle cx="270" cy="130" r="46" fill="#FBF3EF" opacity="0.25"/>
  <text x="40" y="200" font-family="Georgia, serif" font-size="30" fill="#FFFFFF" font-style="italic">Timeless</text>
  <text x="40" y="236" font-family="Georgia, serif" font-size="30" fill="#FFFFFF" font-style="italic">beauty.</text>
  <rect x="40" y="300" width="150" height="40" rx="20" fill="#B98A3E"/>
  <text x="115" y="325" font-family="Arial" font-size="12" fill="#FFFFFF" text-anchor="middle" letter-spacing="1">BOOK NOW</text>
  <!-- pill categories -->
  <rect x="20" y="392" width="92" height="34" rx="17" fill="#F1E2DC"/>
  <rect x="124" y="392" width="92" height="34" rx="17" fill="#F1E2DC"/>
  <rect x="228" y="392" width="112" height="34" rx="17" fill="#7A4E47"/>
  <text x="284" y="414" font-family="Arial" font-size="11" fill="#FFF" text-anchor="middle">Injectables</text>
  <!-- treatment rows -->
  <g>
    <rect x="20" y="446" width="320" height="74" rx="16" fill="#FFFFFF"/>
    <rect x="20" y="532" width="320" height="74" rx="16" fill="#FFFFFF"/>
    <circle cx="58" cy="483" r="22" fill="#E8C9C2"/>
    <circle cx="58" cy="569" r="22" fill="#E8C9C2"/>
    <rect x="94" y="470" width="150" height="11" rx="5" fill="#7A4E47" opacity="0.7"/>
    <rect x="94" y="490" width="110" height="9" rx="4" fill="#2E2A26" opacity="0.25"/>
    <rect x="94" y="556" width="150" height="11" rx="5" fill="#7A4E47" opacity="0.7"/>
    <rect x="94" y="576" width="110" height="9" rx="4" fill="#2E2A26" opacity="0.25"/>
    <text x="312" y="488" font-family="Arial" font-size="12" fill="#B98A3E" text-anchor="end">$$</text>
    <text x="312" y="574" font-family="Arial" font-size="12" fill="#B98A3E" text-anchor="end">$$</text>
  </g>
  <!-- footer -->
  <rect x="0" y="700" width="360" height="60" fill="#7A4E47"/>
  <text x="24" y="736" font-family="Georgia, serif" font-size="13" fill="#FBF3EF" font-style="italic">Maison Belle Studio</text>
</svg>
