<svg xmlns="http://www.w3.org/2000/svg" viewBox="0 0 360 760" width="360" height="760" role="img" aria-label="A different med spa website design, built for mobile by TechxServe">
  <defs>
    <linearGradient id="blush" x1="0" y1="0" x2="0" y2="1">
      <stop offset="0" stop-color="#E8C9C2"/>
      <stop offset="1" stop-color="#D9B8B0"/>
    </linearGradient>
  </defs>
  <rect width="360" height="760" fill="#FBF3EF"/>

  <!-- top safe area (clears the notch) y0-58 -->
  <!-- top bar -->
  <text x="26" y="86" font-family="Georgia, serif" font-size="18" fill="#7A4E47" font-weight="600" font-style="italic">Maison Belle</text>
  <text x="190" y="85" font-family="Arial, sans-serif" font-size="9" fill="#7A4E47" opacity="0.55" letter-spacing="1.5">SKIN STUDIO</text>
  <circle cx="320" cy="80" r="13" fill="#7A4E47"/>
  <path d="M314 80h12M320 74v12" stroke="#FBF3EF" stroke-width="1.6" stroke-linecap="round"/>

  <!-- rounded hero -->
  <rect x="20" y="104" width="320" height="248" rx="22" fill="url(#blush)"/>
  <circle cx="278" cy="158" r="42" fill="#FBF3EF" opacity="0.25"/>
  <text x="40" y="184" font-family="Georgia, serif" font-size="28" fill="#FFFFFF" font-style="italic">Timeless</text>
  <text x="40" y="218" font-family="Georgia, serif" font-size="28" fill="#FFFFFF" font-style="italic">beauty.</text>
  <rect x="40" y="280" width="148" height="40" rx="20" fill="#B98A3E"/>
  <text x="114" y="305" font-family="Arial" font-size="12" fill="#FFFFFF" text-anchor="middle" letter-spacing="1">BOOK NOW</text>

  <!-- category pills -->
  <rect x="20" y="372" width="90" height="32" rx="16" fill="#F1E2DC"/>
  <rect x="120" y="372" width="90" height="32" rx="16" fill="#F1E2DC"/>
  <rect x="220" y="372" width="120" height="32" rx="16" fill="#7A4E47"/>
  <text x="280" y="393" font-family="Arial" font-size="11" fill="#FFF" text-anchor="middle">Injectables</text>

  <!-- treatment rows -->
  <rect x="20" y="424" width="320" height="72" rx="16" fill="#FFFFFF"/>
  <rect x="20" y="508" width="320" height="72" rx="16" fill="#FFFFFF"/>
  <circle cx="58" cy="460" r="21" fill="#E8C9C2"/>
  <circle cx="58" cy="544" r="21" fill="#E8C9C2"/>
  <rect x="94" y="448" width="150" height="11" rx="5" fill="#7A4E47" opacity="0.7"/>
  <rect x="94" y="468" width="110" height="9" rx="4" fill="#2E2A26" opacity="0.25"/>
  <rect x="94" y="532" width="150" height="11" rx="5" fill="#7A4E47" opacity="0.7"/>
  <rect x="94" y="552" width="110" height="9" rx="4" fill="#2E2A26" opacity="0.25"/>
  <text x="312" y="464" font-family="Arial" font-size="12" fill="#B98A3E" text-anchor="end">$$</text>
  <text x="312" y="548" font-family="Arial" font-size="12" fill="#B98A3E" text-anchor="end">$$</text>

  <!-- footer band (kept clear of the rounded bottom corners) -->
  <rect x="0" y="618" width="360" height="142" fill="#7A4E47"/>
  <text x="26" y="660" font-family="Georgia, serif" font-size="13" fill="#FBF3EF" font-style="italic">Maison Belle Studio</text>
</svg>
